<?xml version="1.0" encoding="UTF-8" standalone="no"?>
<!-- Created with Inkscape (http://www.inkscape.org/) -->

<svg
   version="1.1"
   id="svg2"
   width="1000"
   height="666.66669"
   viewBox="0 0 1000 666.66669"
   sodipodi:docname="7569999.eps"
   xmlns:inkscape="http://www.inkscape.org/namespaces/inkscape"
   xmlns:sodipodi="http://sodipodi.sourceforge.net/DTD/sodipodi-0.dtd"
   xmlns="http://www.w3.org/2000/svg"
   xmlns:svg="http://www.w3.org/2000/svg">
  <defs
     id="defs6" />
  <sodipodi:namedview
     id="namedview4"
     pagecolor="#ffffff"
     bordercolor="#000000"
     borderopacity="0.25"
     inkscape:showpageshadow="2"
     inkscape:pageopacity="0.0"
     inkscape:pagecheckerboard="0"
     inkscape:deskcolor="#d1d1d1" />
  <g
     id="g8"
     inkscape:groupmode="layer"
     inkscape:label="ink_ext_XXXXXX"
     transform="matrix(1.3333333,0,0,-1.3333333,0,666.66667)">
    <g
       id="g10"
       transform="scale(0.1)">
      <path
         d="M 7500,0 H 0 V 5000 H 7500 V 0"
         style="fill:#f9f8f7;fill-opacity:1;fill-rule:nonzero;stroke:none"
         id="path12" />
      <path
         d="m 1602.77,2941.66 0.61,1.09 -0.85,0.14 z m -38.53,921.46 c 3.66,-10.89 6.84,-20.61 10.18,-30.27 5.56,-16.06 11.31,-32.07 16.8,-48.15 2.1,-6.15 4.99,-11.22 11.41,-13.94 9.43,-3.99 18.52,-8.79 27.99,-12.68 17.72,-7.27 35.43,-14.64 53.49,-20.99 11.77,-4.13 24.14,-6.59 36.27,-9.7 6.47,-1.66 12.93,-3.57 19.51,-4.54 13.71,-2 27.48,-3.71 41.27,-5.06 13.75,-1.35 27.63,-3.54 41.31,-2.8 17.79,0.97 35.41,4.78 53.16,6.83 36.36,4.21 70.83,14.81 103.73,30.55 18.25,8.73 32.33,22.04 41.44,40.41 9.01,18.18 13.71,37.74 18.78,57.19 0.63,2.44 0.47,5.08 0.73,8.31 -5.63,1.67 -10.69,3.32 -15.84,4.64 -7.36,1.89 -14.99,2.95 -22.14,5.41 -32.48,11.13 -65.82,19.6 -97.38,33.58 -22.42,9.94 -45.62,18.14 -68.6,26.76 -6.64,2.5 -13.65,4.67 -20.65,5.42 -10.6,1.13 -21.35,1.33 -32.02,1.03 -5.18,-0.14 -10.84,-1.31 -15.36,-3.74 -15.38,-8.22 -30.43,-16.67 -47.6,-21.24 -15.87,-4.23 -31.04,-11.03 -46.74,-16 -14.02,-4.44 -28.37,-7.85 -42.54,-11.85 -21.87,-6.17 -43.7,-12.46 -67.2,-19.17 z m 24.08,-942.46 c -1.93,-1.65 -4.33,-2.98 -5.73,-5.01 -16,-23.2 -31.9,-46.47 -47.72,-69.81 -17,-25.08 -34.16,-50.06 -50.69,-75.44 -8.74,-13.43 -16.28,-27.65 -24.4,-41.49 -10.41,-17.73 -20.93,-35.4 -31.24,-53.19 -4.92,-8.5 -9.61,-17.15 -14.17,-25.86 -10.36,-19.77 -20.56,-39.62 -30.89,-59.41 -0.79,-1.51 -2.07,-2.77 -3.81,-5.05 -1.54,4.2 -2.89,7.35 -3.87,10.61 -14.14,47.18 -27.63,94.54 -36.63,143.03 -6.79,36.64 -10.78,73.58 -8.58,110.93 2.17,36.92 10.67,72.46 22.57,107.43 20.86,61.37 55.93,113.87 98.74,161.72 50.86,56.85 110.04,103.76 173.42,145.73 36.93,24.46 73.5,49.54 107.96,77.39 23.65,19.11 46.61,39.23 66.36,62.6 6.57,7.77 12.38,16.05 15.94,26.39 -1.12,-0.83 -2.43,-1.49 -3.34,-2.51 -29.81,-33.59 -66.1,-58.8 -105.04,-80.38 -15.62,-8.66 -32.01,-15.92 -48.07,-23.78 -9.24,-4.52 -18.43,-9.15 -27.81,-13.35 -4.36,-1.95 -9.12,-3 -13.94,-4.54 -4.43,7.04 -6.05,14.02 -7.33,20.94 -3.36,18.15 -10.18,35.11 -16.74,52.22 -6.1,15.91 -13.01,31.37 -21.91,45.87 -7.69,12.54 -15.85,24.81 -23.94,37.1 -13.99,21.27 -27.84,42.64 -42.22,63.65 -13.94,20.34 -21.95,42.99 -26.4,66.87 -5.08,27.23 -2.87,54.33 5.62,80.67 6.45,19.98 13.63,39.74 20.93,59.43 2.91,7.83 4.03,15.44 1.9,23.54 -5.48,20.75 -10.83,41.53 -16.34,62.27 -1.58,5.96 -3.54,11.81 -5.56,18.47 -16.9,-5.62 -32.34,-12.35 -46.93,-20.76 -15.51,-8.94 -29.98,-19.55 -43.08,-31.77 -7.82,-7.27 -14.88,-15.37 -22.12,-23.25 -4.62,-5.01 -9.47,-9.44 -16.45,-10.9 -6.53,-1.37 -10.18,0.64 -12.03,7.13 -2.65,9.25 0.43,18.14 4.28,25.82 4.74,9.44 10.85,18.89 18.53,26 16.64,15.4 34.3,29.77 52.26,43.64 8.02,6.19 17.73,10.22 26.73,15.12 7.86,4.27 15.81,8.4 24.14,12.82 0.62,7.19 -2.59,13.75 -4.11,20.57 -1.16,5.24 -2.77,10.37 -4.14,15.56 -2.56,9.68 -2.06,11.66 5.52,17.12 11.42,8.21 23.52,14.31 38.26,14.31 10.87,0 19.27,-4.27 25.33,-12.54 5.24,-7.15 9.3,-15.19 13.66,-22.97 2.76,-4.92 4.43,-5.87 9.59,-4.37 26.16,7.56 52.38,14.87 78.44,22.74 21.11,6.37 40.81,15.89 58.29,29.47 6.66,5.17 12.91,10.97 18.73,17.09 18.1,19.04 39.24,32.35 65.65,36.24 1.29,0.19 2.52,0.84 4.6,1.57 0,2.92 0.13,5.99 -0.02,9.05 -1.17,22.81 -1.57,45.68 -3.9,68.37 -1.51,14.74 5.17,24.78 14.29,34.31 10.23,10.7 19.53,22.05 26.96,34.91 7.48,12.95 7.08,24.92 -2.37,35.86 -2.45,2.82 -6.52,4.54 -10.16,5.97 -4.96,1.96 -10.12,3.89 -15.35,4.55 -16.27,2.03 -27.82,-9.37 -26.62,-25.7 0.23,-3.07 1.01,-6.2 0.7,-9.22 -0.64,-6.37 -4.51,-10.75 -9.57,-11.37 -5.94,-0.73 -10.95,1.43 -13.39,6.81 -1.77,3.91 -3,8.6 -2.69,12.81 1.46,20.28 13.39,33.35 30.87,41.91 29.05,14.23 60.37,-1.77 73.19,-23.85 6.18,-10.63 5.69,-22.49 2.13,-33.91 -5.95,-19.09 -15.37,-36.36 -30.35,-49.9 -9.95,-9 -14.48,-18.27 -12.45,-32.72 2.72,-19.29 1.64,-39.11 2.24,-58.7 0.07,-2.16 0.46,-4.32 0.71,-6.62 10.61,-1.5 20.72,-2.77 30.75,-4.45 3.45,-0.58 7.07,-1.63 10.01,-3.44 13.23,-8.15 27.39,-14.85 39.54,-24.73 9.7,-7.88 18.64,-16.96 29.18,-23.49 13.59,-8.42 25.35,-19.97 41.01,-25.02 1.68,-0.54 3.25,-1.5 4.81,-2.37 21.55,-12.08 44.8,-20.04 68.04,-28.02 7.08,-2.43 14.12,-5.02 22.17,-7.89 3.94,9.37 8.01,17.73 10.96,26.46 3.12,9.24 8.56,14.22 18.56,14.2 9.4,-0.02 18.8,0.85 28.18,0.6 5.28,-0.14 10.76,-1.08 15.72,-2.87 7.99,-2.88 10.93,-8.41 9.53,-16.87 -1.52,-9.25 -3.58,-18.42 -5.37,-27.64 -0.84,-4.31 -1.59,-8.64 -2.39,-12.98 10.81,-3.98 20.67,-7.71 30.6,-11.27 19.07,-6.83 35.74,-17.55 52.32,-29.17 17.05,-11.94 28.06,-28.18 39.67,-44.5 6.75,-9.49 5.94,-19.5 3.74,-29.62 -2.02,-9.25 -10.75,-11.65 -17.1,-4.58 -8.09,9 -16.01,18.22 -25.77,25.3 -15.12,10.98 -29.88,22.65 -47.25,30.13 -13.9,5.98 -27.83,11.89 -41.79,17.74 -1.59,0.66 -3.45,0.68 -5.91,1.12 -5.97,-15.28 -8.41,-31 -9.93,-47.07 -1.86,-19.67 -0.08,-39.27 0.09,-58.9 0.24,-26.85 0.34,-53.7 -2.37,-80.46 -0.63,-6.22 -1.64,-12.44 -3.05,-18.53 -5.24,-22.65 -9.88,-45.49 -16.41,-67.77 -4.63,-15.81 -12.18,-30.74 -17.99,-46.23 -9.09,-24.24 -18.11,-48.55 -23.32,-73.98 -1.69,-8.25 -2.66,-16.93 -2.16,-25.31 1.38,-23.22 3.92,-46.36 5.57,-69.56 0.8,-11.15 0.32,-22.38 0.97,-33.55 2.21,-37.99 4.38,-76 7.12,-113.96 1.67,-23.16 4.01,-46.28 6.67,-69.35 2.57,-22.2 5.51,-44.39 9.09,-66.45 4.23,-26.01 9.95,-51.79 13.84,-77.85 3.1,-20.79 8.2,-41.1 12.39,-61.63 3.3,-16.2 7.64,-32.18 11.63,-48.24 3.99,-16.06 8.05,-32.11 12.19,-48.14 4.03,-15.57 7.78,-31.24 12.38,-46.64 6.51,-21.81 13.76,-43.39 20.55,-65.12 1.32,-4.24 1.64,-8.81 3.01,-13.03 3.98,-12.28 8.19,-24.48 12.43,-36.67 6.9,-19.84 13.6,-39.76 20.94,-59.44 6.56,-17.58 13.79,-34.92 20.86,-52.31 10.11,-24.86 20.22,-49.71 30.58,-74.47 5.52,-13.2 11.49,-26.23 17.38,-39.28 8.64,-19.13 17.17,-38.31 26.15,-57.29 8.01,-16.94 16.57,-33.63 24.87,-50.45 7.5,-15.21 14.71,-30.57 22.54,-45.61 5.76,-11.04 12.33,-21.67 18.53,-32.48 6.89,-12.02 13.8,-24.03 20.67,-36.06 3.1,-5.44 6.03,-10.98 9.19,-16.38 7.88,-13.49 17.42,-25.97 23.06,-40.83 2.32,-6.13 7.29,-11.22 10.83,-16.92 3.51,-5.67 6.77,-11.51 10.09,-17.3 0.67,-1.16 0.96,-2.55 1.7,-3.65 9.73,-14.45 19.44,-28.93 29.31,-43.29 6.81,-9.92 15.24,-18.99 20.44,-29.67 5.81,-11.93 14.68,-21.29 22.11,-31.81 10.58,-14.99 21.69,-29.62 33.02,-44.06 10.72,-13.66 22.03,-26.86 33.05,-40.29 9.36,-11.41 18.75,-22.81 28,-34.3 9.24,-11.48 18.22,-23.12 28.9,-33.42 7.99,-7.71 14.82,-16.61 22.21,-24.95 1.78,-2 3.39,-4.49 5.64,-5.71 12.3,-6.63 19.23,-18.47 28.16,-28.37 2.39,-2.65 4.56,-5.65 7.38,-7.73 13.47,-9.9 23.32,-23.5 35.58,-34.52 12.27,-11.04 22.32,-24.3 35.81,-34.13 7.11,-5.18 12.95,-12.11 19.36,-18.26 0.64,-0.62 1.19,-1.44 1.95,-1.83 17.17,-8.66 27.88,-24.99 42.93,-36.18 1.43,-1.06 2.55,-2.55 4,-3.58 15.29,-10.85 30.62,-21.64 45.94,-32.45 1.83,-1.29 3.92,-2.33 5.44,-3.92 11.89,-12.44 27.5,-19.82 40.83,-30.23 16.29,-12.73 34.66,-22.13 51.4,-34.1 13.77,-9.85 28.22,-18.85 42.94,-27.21 18.62,-10.58 37.93,-19.93 56.72,-30.21 10.97,-6 21.52,-12.76 32.24,-19.2 1.91,-1.15 3.58,-3.08 5.62,-3.59 15.07,-3.71 27.3,-13.19 40.97,-19.73 6,-2.87 12.33,-5.08 18.37,-7.88 15.79,-7.31 31.38,-15.05 47.28,-22.09 12.63,-5.59 25.17,-11.55 38.97,-14.01 3.49,-0.62 7.45,-1.35 10.1,-3.42 7.46,-5.85 16.51,-6.49 25.04,-8.87 10.74,-2.99 21.67,-5.39 30.84,-12.42 2.04,-1.56 4.82,-2.41 7.39,-3.02 10.85,-2.54 21.81,-4.66 32.63,-7.33 9.97,-2.46 20.26,-4.41 29.58,-8.47 8.47,-3.68 17.33,-4.09 25.93,-6.29 9.08,-2.32 18.25,-4.28 27.36,-6.43 9.08,-2.14 18.14,-4.33 28.43,-6.79 -10.28,-5.01 -20.03,-9.82 -29.83,-14.53 -33.06,-15.91 -67.35,-28.63 -101.86,-41.04 -41.79,-15.03 -84.59,-25.84 -128.07,-34.1 -17.48,-3.31 -35.36,-4.46 -53.06,-6.64 -4.42,-0.55 -8.79,-1.53 -13.22,-1.92 -10.58,-0.93 -21.18,-1.76 -31.78,-2.37 -11.11,-0.65 -22.26,-1.64 -33.36,-1.32 -15.14,0.45 -30.26,1.99 -45.39,3.08 -1.79,0.13 -3.56,0.58 -5.34,0.58 -34.21,0.04 -67.68,6.13 -101,12.89 -21.34,4.33 -42.45,9.86 -63.59,15.15 -17.28,4.33 -33.94,10.66 -50.51,17.1 -29.92,11.61 -59.64,23.65 -88.1,38.66 -15.79,8.32 -32.51,14.85 -48.4,23 -14.63,7.49 -28.75,16.01 -43.04,24.18 -11.22,6.41 -21.57,14.52 -32.78,20.56 -11.86,6.4 -21.64,15.65 -33.68,21.55 -3.1,1.52 -5.31,4.76 -8.14,6.92 -4.21,3.22 -8.71,6.06 -12.91,9.29 -9.46,7.27 -19.81,13.23 -27.94,22.46 -5.76,6.53 -14.57,10.31 -20.69,16.6 -6.21,6.39 -11.47,13.55 -20.3,16.61 -1.07,1.68 -2.14,3.37 -3.22,5.05 -0.55,-0.55 -1.1,-1.1 -1.66,-1.65 1.65,-1.11 3.29,-2.23 4.94,-3.35 6.02,-8.18 11.61,-16.74 18.18,-24.47 9.55,-11.22 19.64,-22 29.8,-32.69 11.98,-12.6 24.05,-25.13 36.51,-37.25 11.17,-10.85 22.6,-21.48 34.5,-31.53 16.72,-14.11 33.94,-27.61 51,-41.31 12.18,-9.79 25.36,-18.37 37.41,-28.14 17.47,-14.17 36.91,-25.04 55.38,-37.51 23,-15.52 47.09,-29.22 71.69,-41.95 21.05,-10.89 42.2,-21.65 63.79,-31.39 28.06,-12.64 56.4,-24.69 84.97,-36.12 36.86,-14.74 74.07,-28.73 112.4,-39.12 31.48,-8.53 63.36,-15.59 95.92,-19.13 14.21,-1.54 28.25,-4.7 42.46,-6.19 25.73,-2.7 51.52,-4.7 78.15,-7.06 -1.47,-1.71 -2.76,-3.91 -4.65,-5.28 -14.52,-10.48 -29.64,-19.97 -45.73,-27.94 -9.19,-4.55 -17.83,-10.19 -26.85,-15.11 -9.01,-4.92 -18.17,-9.57 -27.3,-14.28 -11.5,-5.94 -23.45,-10.87 -34.46,-17.92 -7.04,-4.5 -15.52,-6.78 -23.41,-9.92 -22.4,-8.898 -44.5,-18.699 -67.33,-26.3 -19.43,-6.469 -39.72,-10.399 -59.64,-15.418 -3.03,-0.77 -6.17,-1.172 -9.17,-2.063 -20.28,-6.019 -41.09,-8.367 -62.13,-9.449 -4.89,-0.25 -9.71,-1.629 -14.59,-2.281 -6.63,-0.879 -13.3,-1.52 -19.95,-2.348 -4.36,-0.551 -8.71,-1.27 -13.07,-1.871 -2.19,-0.309 -4.4,-0.758 -6.6,-0.781 -12.07,-0.098 -24.14,-0.36 -36.2,-0.059 -13.38,0.34 -26.75,1.211 -40.12,1.859 -1.34,0.071 -2.7,0.493 -4.01,0.352 -18.98,-1.981 -37.32,3.078 -55.95,4.98 -1.34,0.129 -2.67,0.539 -4,0.489 -18.04,-0.719 -35.75,3.019 -53.13,6.41 -20,3.91 -40.49,7.211 -59.3,16.301 -7.92,3.828 -16.7,5.871 -24.92,9.129 -19.08,7.57 -38.16,15.18 -57.07,23.17 -13.57,5.74 -26.98,11.88 -40.27,18.24 -22.97,11.02 -44.57,24.51 -66.68,37.11 -15.15,8.65 -29.63,18.14 -43.75,28.37 -15.85,11.48 -32.96,21.26 -48.53,33.08 -28.37,21.54 -56.78,43.04 -83.16,67.11 -18.8,17.16 -36.33,35.44 -53.94,53.76 -21.39,22.24 -41.46,45.55 -61.09,69.28 -14.24,17.21 -28.03,34.84 -41.21,52.87 -14.49,19.82 -28.04,40.31 -42.04,60.48 -0.71,1.02 -1.88,1.73 -4.08,3.7 1.04,-4.35 1.39,-7.43 2.49,-10.21 8.49,-21.56 16.71,-43.24 25.84,-64.53 7.57,-17.66 16.34,-34.81 24.45,-52.24 14.69,-31.59 31.58,-61.94 49.08,-92.08 12.12,-20.87 25.01,-41.2 37.8,-61.62 8.03,-12.83 15.87,-25.76 25.43,-37.67 11.14,-13.9 20.62,-29.12 31.62,-43.15 14.35,-18.28 28.86,-36.51 44.41,-53.76 23.98,-26.571 48.65,-52.532 73.53,-78.282 13.67,-14.148 28.37,-27.308 42.57,-40.949 2.16,-2.07 4.13,-4.34 7.74,-8.148 -4.21,0 -6.26,-0.141 -8.29,0.019 -55.36,4.36 -110.77,8.5 -164.98,21.602 -59.34,14.328 -116.98,33.558 -172.38,59.41 -43.95,20.508 -86.17,43.948 -125.87,71.818 -37.86,26.58 -72.79,56.69 -105.88,88.96 -36.32,35.41 -70.09,73.05 -99.66,114.35 -30.33,42.37 -56.09,87.38 -78.43,134.44 -22.5,47.41 -41.83,96.06 -57.81,146.02 -18.43,57.64 -33.13,116.24 -42.92,175.97 -2.6,15.85 -3.27,32.04 -4.45,48.11 -1.66,22.71 -3.57,45.43 -4.3,68.19 -0.83,25.89 -0.5,51.82 -0.64,77.73 -0.05,9.84 -0.01,19.68 -0.01,31.39 -5.17,-5.86 -5.83,-11.88 -6.88,-17.33 -3.9,-20.19 -7.61,-40.42 -10.76,-60.73 -5,-32.24 -9.54,-64.55 -14.17,-96.85 -2.78,-19.44 -5.53,-38.9 -8,-58.39 -1.29,-10.19 -2.06,-20.45 -2.88,-30.7 -3.39,-41.91 -6.52,-83.86 -6.78,-125.92 -0.2,-32.12 0.49,-64.26 1.17,-96.39 0.52,-24.15 1.68,-48.29 2.5,-72.44 0.14,-3.99 0.02,-7.99 0.02,-11.99 -7.4,-1.88 -10.63,2.55 -13.22,7.31 -4.27,7.86 -8.06,15.98 -12.14,23.94 -9.79,19.07 -19.76,38.05 -29.41,57.19 -5.61,11.14 -10.76,22.52 -16.11,33.8 -5.73,12.06 -11.46,24.12 -17.16,36.19 -1.15,2.43 -2.27,4.88 -3.27,7.37 -13.55,34.01 -27.07,68.02 -37.4,103.21 -13.64,46.46 -24.39,93.55 -32.26,141.31 -7.42,45.11 -12.92,90.48 -14.98,136.13 -1.43,31.76 -1.46,63.62 -1.06,95.43 0.44,34.03 1.39,68.1 3.41,102.07 4.84,81.46 14.44,162.3 32.48,242.03 17.11,75.63 38.75,149.97 63.48,223.39 9.12,27.06 18.99,53.89 30.04,80.33 13.59,32.54 26.67,65.25 42.35,96.88 10.89,21.98 20.8,44.45 31.4,66.58 4.43,9.25 9.42,18.25 14.35,27.25 13.71,25.06 26.58,50.59 41.62,74.92 1.26,2.04 1.07,4.98 1.55,7.5 3.69,1.42 5.46,4.12 5.37,8.06 0.78,0.77 1.57,1.54 2.36,2.3 -0.46,0.37 -0.93,0.74 -1.39,1.11 -0.23,-1.22 -0.45,-2.45 -0.67,-3.68 -3.63,-1.44 -5.29,-4.22 -5.41,-8.03"
         style="fill:#61cac4;fill-opacity:1;fill-rule:nonzero;stroke:none"
         id="path14" />
      <g
         id="g16"
         transform="scale(10)">
        <text
           xml:space="preserve"
           transform="matrix(1,0,0,-1,180.228,220.979)"
           style="font-variant:normal;font-weight:normal;font-size:158px;font-family:Yellowtail;-inkscape-font-specification:Yellowtail-Regular;writing-mode:lr-tb;fill:#2b2f3c;fill-opacity:1;fill-rule:nonzero;stroke:none"
           id="text20"><tspan
             x="0 91.255402 155.12361 212.74181 274.37271 305.91571 363.3024"
             y="0"
             sodipodi:role="line"
             id="tspan18">Fashion</tspan></text>
        <text
           xml:space="preserve"
           transform="matrix(1,0,0,-1,235.7878,189.688)"
           style="font-variant:normal;font-weight:600;font-size:16px;font-family:Montserrat;-inkscape-font-specification:Montserrat-SemiBold;writing-mode:lr-tb;fill:#2b2f3c;fill-opacity:1;fill-rule:nonzero;stroke:none"
           id="text24"><tspan
             x="0 15.423792 28.592287 45.696274 59.120064 75.872063 84.76757 101.51957 117.66317 125.87119 139.5675 152.83121 170.09489 185.58319"
             y="0"
             sodipodi:role="line"
             id="tspan22">CLOTHING STORE</tspan></text>
      </g>
    </g>
  </g>
</svg>
